<svg width="155" height="26" viewBox="0 0 155 26" fill="none" xmlns="http://www.w3.org/2000/svg">
<path d="M14.33 12.9662L19 10.6V5.8L14.3697 3.4L14.33 12.9662Z" fill="#380D63"/>
<path d="M19 20.2V15.56L14.3294 13.1008L14.3099 17.8L14.2899 22.6L19 20.2Z" fill="#380D63"/>
<path d="M9.57983 10.6L4.78992 13V17.8L14.1994 13.0324L9.57983 10.6Z" fill="#701BC5"/>
<path d="M0 5.8L4.78992 8.04L14.3697 3.4L9.57983 1L0 5.8Z" fill="#541494"/>
<path d="M4.78992 8.04L0 5.8V20.2L4.78992 22.6V17.8V13V8.04Z" fill="#8F3AE4"/>
<path d="M4.78992 22.6L9.57983 25L14.2899 22.6L14.3099 17.8L4.78992 22.6Z" fill="#BD8AEF"/>
<path d="M36.9282 4.488C37.7602 4.488 38.5202 4.664 39.2082 5.016C39.9122 5.352 40.4642 5.832 40.8642 6.456C41.2802 7.08 41.4882 7.776 41.4882 8.544C41.4882 10.576 40.5682 11.856 38.7282 12.384V12.48C40.8242 12.96 41.8722 14.336 41.8722 16.608C41.8722 17.472 41.6562 18.24 41.2242 18.912C40.8082 19.568 40.2322 20.08 39.4962 20.448C38.7602 20.816 37.9522 21 37.0722 21H25.9362V4.488H36.9282ZM31.2402 10.92H34.8882C35.2402 10.92 35.5282 10.8 35.7522 10.56C35.9922 10.304 36.1122 9.992 36.1122 9.624V9.384C36.1122 9.032 35.9922 8.736 35.7522 8.496C35.5122 8.24 35.2242 8.112 34.8882 8.112H31.2402V10.92ZM31.2402 17.16H35.2722C35.6242 17.16 35.9122 17.04 36.1362 16.8C36.3762 16.544 36.4962 16.232 36.4962 15.864V15.624C36.4962 15.256 36.3762 14.952 36.1362 14.712C35.9122 14.456 35.6242 14.328 35.2722 14.328H31.2402V17.16Z" fill="#F5EDFD"/>
<path d="M48.3519 21V4.488H53.6559V21H48.3519Z" fill="#F5EDFD"/>
<path d="M70.6198 8.712V21H65.3158V8.712H59.8918V4.488H76.0198V8.712H70.6198Z" fill="#F5EDFD"/>
<path d="M97.6082 9.552C97.6082 10.56 97.3362 11.472 96.7922 12.288C96.2482 13.104 95.4562 13.704 94.4162 14.088L98.0882 21H92.1362L89.2082 14.976H87.2402V21H81.9362V4.488H92.0402C93.2242 4.488 94.2322 4.72 95.0642 5.184C95.9122 5.632 96.5442 6.248 96.9602 7.032C97.3922 7.8 97.6082 8.64 97.6082 9.552ZM92.2082 9.768C92.2082 9.336 92.0642 8.976 91.7762 8.688C91.4882 8.4 91.1362 8.256 90.7202 8.256H87.2402V11.304H90.7202C91.1362 11.304 91.4882 11.16 91.7762 10.872C92.0642 10.568 92.2082 10.2 92.2082 9.768Z" fill="#F5EDFD"/>
<path d="M104.352 21V4.488H109.656V21H104.352Z" fill="#F5EDFD"/>
<path d="M124.808 4.2C127.256 4.2 129.192 4.816 130.616 6.048C132.04 7.264 132.752 9.008 132.752 11.28H127.688C127.688 10.32 127.432 9.56 126.92 9C126.424 8.44 125.712 8.16 124.784 8.16C123.712 8.16 122.92 8.496 122.408 9.168C121.912 9.84 121.664 10.776 121.664 11.976V13.512C121.664 14.696 121.912 15.632 122.408 16.32C122.92 16.992 123.696 17.328 124.736 17.328C125.76 17.328 126.536 17.064 127.064 16.536C127.592 16.008 127.856 15.264 127.856 14.304H132.752C132.752 16.56 132.056 18.288 130.664 19.488C129.288 20.688 127.336 21.288 124.808 21.288C121.992 21.288 119.856 20.568 118.4 19.128C116.96 17.688 116.24 15.56 116.24 12.744C116.24 9.928 116.96 7.8 118.4 6.36C119.856 4.92 121.992 4.2 124.808 4.2Z" fill="#F5EDFD"/>
<path d="M146.052 4.2C148.164 4.2 149.9 4.632 151.26 5.496C152.62 6.344 153.316 7.608 153.348 9.288V9.576H148.38V9.48C148.38 9 148.204 8.6 147.852 8.28C147.5 7.96 146.964 7.8 146.244 7.8C145.54 7.8 144.996 7.904 144.612 8.112C144.244 8.32 144.06 8.576 144.06 8.88C144.06 9.312 144.316 9.632 144.828 9.84C145.34 10.048 146.164 10.264 147.3 10.488C148.628 10.76 149.716 11.048 150.564 11.352C151.428 11.64 152.18 12.12 152.82 12.792C153.46 13.464 153.788 14.376 153.804 15.528C153.804 17.48 153.14 18.928 151.812 19.872C150.5 20.816 148.74 21.288 146.532 21.288C143.956 21.288 141.948 20.856 140.508 19.992C139.084 19.128 138.372 17.6 138.372 15.408H143.388C143.388 16.24 143.604 16.8 144.036 17.088C144.468 17.36 145.14 17.496 146.052 17.496C146.724 17.496 147.276 17.424 147.708 17.28C148.156 17.136 148.38 16.84 148.38 16.392C148.38 15.992 148.132 15.696 147.636 15.504C147.156 15.296 146.364 15.08 145.26 14.856C143.916 14.568 142.804 14.272 141.924 13.968C141.044 13.648 140.276 13.128 139.62 12.408C138.964 11.688 138.636 10.712 138.636 9.48C138.636 7.672 139.332 6.344 140.724 5.496C142.132 4.632 143.908 4.2 146.052 4.2Z" fill="#F5EDFD"/>
</svg>
