          <svg
            width="133"
            height="26"
            viewBox="0 0 133 26"
            fill="none"
            xmlns="http://www.w3.org/2000/svg"
          >
            <path
              d="M14.33 12.9662L19 10.6V5.8L14.3697 3.4L14.33 12.9662Z"
              fill="#380D63"
            />
            <path
              d="M19 20.2V15.56L14.3294 13.1008L14.3099 17.8L14.2899 22.6L19 20.2Z"
              fill="#380D63"
            />
            <path
              d="M9.57983 10.6L4.78992 13V17.8L14.1994 13.0324L9.57983 10.6Z"
              fill="#701BC5"
            />
            <path
              d="M0 5.8L4.78992 8.04L14.3697 3.4L9.57983 1L0 5.8Z"
              fill="#541494"
            />
            <path
              d="M4.78992 8.04L0 5.8V20.2L4.78992 22.6V17.8V13V8.04Z"
              fill="#8F3AE4"
            />
            <path
              d="M4.78992 22.6L9.57983 25L14.2899 22.6L14.3099 17.8L4.78992 22.6Z"
              fill="#BD8AEF"
            />
            <path d="M26.3519 21V4.488H31.6559V21H26.3519Z" fill="#F5EDFD" />
            <path
              d="M48.6198 8.712V21H43.3158V8.712H37.8918V4.488H54.0198V8.712H48.6198Z"
              fill="#F5EDFD"
            />
            <path
              d="M75.6082 9.552C75.6082 10.56 75.3362 11.472 74.7922 12.288C74.2482 13.104 73.4562 13.704 72.4162 14.088L76.0882 21H70.1362L67.2082 14.976H65.2402V21H59.9362V4.488H70.0402C71.2242 4.488 72.2322 4.72 73.0642 5.184C73.9122 5.632 74.5442 6.248 74.9602 7.032C75.3922 7.8 75.6082 8.64 75.6082 9.552ZM70.2082 9.768C70.2082 9.336 70.0642 8.976 69.7762 8.688C69.4882 8.4 69.1362 8.256 68.7202 8.256H65.2402V11.304H68.7202C69.1362 11.304 69.4882 11.16 69.7762 10.872C70.0642 10.568 70.2082 10.2 70.2082 9.768Z"
              fill="#F5EDFD"
            />
            <path d="M82.3519 21V4.488H87.6559V21H82.3519Z" fill="#F5EDFD" />
            <path
              d="M102.808 4.2C105.256 4.2 107.192 4.816 108.616 6.048C110.04 7.264 110.752 9.008 110.752 11.28H105.688C105.688 10.32 105.432 9.56 104.92 9C104.424 8.44 103.712 8.16 102.784 8.16C101.712 8.16 100.92 8.496 100.408 9.168C99.9122 9.84 99.6642 10.776 99.6642 11.976V13.512C99.6642 14.696 99.9122 15.632 100.408 16.32C100.92 16.992 101.696 17.328 102.736 17.328C103.76 17.328 104.536 17.064 105.064 16.536C105.592 16.008 105.856 15.264 105.856 14.304H110.752C110.752 16.56 110.056 18.288 108.664 19.488C107.288 20.688 105.336 21.288 102.808 21.288C99.9922 21.288 97.8562 20.568 96.4002 19.128C94.9602 17.688 94.2402 15.56 94.2402 12.744C94.2402 9.928 94.9602 7.8 96.4002 6.36C97.8562 4.92 99.9922 4.2 102.808 4.2Z"
              fill="#F5EDFD"
            />
            <path
              d="M124.052 4.2C126.164 4.2 127.9 4.632 129.26 5.496C130.62 6.344 131.316 7.608 131.348 9.288V9.576H126.38V9.48C126.38 9 126.204 8.6 125.852 8.28C125.5 7.96 124.964 7.8 124.244 7.8C123.54 7.8 122.996 7.904 122.612 8.112C122.244 8.32 122.06 8.576 122.06 8.88C122.06 9.312 122.316 9.632 122.828 9.84C123.34 10.048 124.164 10.264 125.3 10.488C126.628 10.76 127.716 11.048 128.564 11.352C129.428 11.64 130.18 12.12 130.82 12.792C131.46 13.464 131.788 14.376 131.804 15.528C131.804 17.48 131.14 18.928 129.812 19.872C128.5 20.816 126.74 21.288 124.532 21.288C121.956 21.288 119.948 20.856 118.508 19.992C117.084 19.128 116.372 17.6 116.372 15.408H121.388C121.388 16.24 121.604 16.8 122.036 17.088C122.468 17.36 123.14 17.496 124.052 17.496C124.724 17.496 125.276 17.424 125.708 17.28C126.156 17.136 126.38 16.84 126.38 16.392C126.38 15.992 126.132 15.696 125.636 15.504C125.156 15.296 124.364 15.08 123.26 14.856C121.916 14.568 120.804 14.272 119.924 13.968C119.044 13.648 118.276 13.128 117.62 12.408C116.964 11.688 116.636 10.712 116.636 9.48C116.636 7.672 117.332 6.344 118.724 5.496C120.132 4.632 121.908 4.2 124.052 4.2Z"
              fill="#F5EDFD"
            />
          </svg>