<svg width="167" height="154" viewBox="0 0 167 154" fill="none" xmlns="http://www.w3.org/2000/svg">
<rect x="33" width="100" height="100" rx="20" fill="#F5EDFD"/>
<path d="M97.8754 49.3944L112.5 42V27L98 19.5L97.8754 49.3944Z" fill="#380D63"/>
<path d="M112.5 72V57.5L97.8737 49.815L97.8125 64.5L97.75 79.5L112.5 72Z" fill="#380D63"/>
<path d="M83 42L68 49.5V64.5L97.4667 49.6011L83 42Z" fill="#701BC5"/>
<path d="M53 27L68 34L98 19.5L83 12L53 27Z" fill="#541494"/>
<path d="M68 34L53 27V72L68 79.5V64.5V49.5V34Z" fill="#8F3AE4"/>
<path d="M68 79.5L83 87L97.75 79.5L97.8125 64.5L68 79.5Z" fill="#BD8AEF"/>
<path d="M17.0709 124.984C18.1802 124.984 19.1935 125.219 20.1109 125.688C21.0495 126.136 21.7855 126.776 22.3189 127.608C22.8735 128.44 23.1509 129.368 23.1509 130.392C23.1509 133.101 21.9242 134.808 19.4709 135.512V135.64C22.2655 136.28 23.6629 138.115 23.6629 141.144C23.6629 142.296 23.3749 143.32 22.7989 144.216C22.2442 145.091 21.4762 145.773 20.4949 146.264C19.5135 146.755 18.4362 147 17.2629 147H2.41488V124.984H17.0709ZM9.48688 133.56H14.3509C14.8202 133.56 15.2042 133.4 15.5029 133.08C15.8229 132.739 15.9829 132.323 15.9829 131.832V131.512C15.9829 131.043 15.8229 130.648 15.5029 130.328C15.1829 129.987 14.7989 129.816 14.3509 129.816H9.48688V133.56ZM9.48688 141.88H14.8629C15.3322 141.88 15.7162 141.72 16.0149 141.4C16.3349 141.059 16.4949 140.643 16.4949 140.152V139.832C16.4949 139.341 16.3349 138.936 16.0149 138.616C15.7162 138.275 15.3322 138.104 14.8629 138.104H9.48688V141.88Z" fill="#F5EDFD"/>
<path d="M30.9693 147V124.984H38.0413V147H30.9693Z" fill="#F5EDFD"/>
<path d="M59.4931 130.616V147H52.4211V130.616H45.1891V124.984H66.6931V130.616H59.4931Z" fill="#F5EDFD"/>
<path d="M94.3109 131.736C94.3109 133.08 93.9482 134.296 93.2229 135.384C92.4975 136.472 91.4415 137.272 90.0549 137.784L94.9509 147H87.0149L83.1109 138.968H80.4869V147H73.4149V124.984H86.8869C88.4655 124.984 89.8095 125.293 90.9189 125.912C92.0495 126.509 92.8922 127.331 93.4469 128.376C94.0229 129.4 94.3109 130.52 94.3109 131.736ZM87.1109 132.024C87.1109 131.448 86.9189 130.968 86.5349 130.584C86.1509 130.2 85.6815 130.008 85.1269 130.008H80.4869V134.072H85.1269C85.6815 134.072 86.1509 133.88 86.5349 133.496C86.9189 133.091 87.1109 132.6 87.1109 132.024Z" fill="#F5EDFD"/>
<path d="M101.969 147V124.984H109.041V147H101.969Z" fill="#F5EDFD"/>
<path d="M127.911 124.6C131.175 124.6 133.756 125.421 135.655 127.064C137.554 128.685 138.503 131.011 138.503 134.04H131.751C131.751 132.76 131.41 131.747 130.727 131C130.066 130.253 129.116 129.88 127.879 129.88C126.45 129.88 125.394 130.328 124.711 131.224C124.05 132.12 123.719 133.368 123.719 134.968V137.016C123.719 138.595 124.05 139.843 124.711 140.76C125.394 141.656 126.428 142.104 127.815 142.104C129.18 142.104 130.215 141.752 130.919 141.048C131.623 140.344 131.975 139.352 131.975 138.072H138.503C138.503 141.08 137.575 143.384 135.719 144.984C133.884 146.584 131.282 147.384 127.911 147.384C124.156 147.384 121.308 146.424 119.367 144.504C117.447 142.584 116.487 139.747 116.487 135.992C116.487 132.237 117.447 129.4 119.367 127.48C121.308 125.56 124.156 124.6 127.911 124.6Z" fill="#F5EDFD"/>
<path d="M155.069 124.6C157.885 124.6 160.2 125.176 162.013 126.328C163.826 127.459 164.754 129.144 164.797 131.384V131.768H158.173V131.64C158.173 131 157.938 130.467 157.469 130.04C157 129.613 156.285 129.4 155.325 129.4C154.386 129.4 153.661 129.539 153.149 129.816C152.658 130.093 152.413 130.435 152.413 130.84C152.413 131.416 152.754 131.843 153.437 132.12C154.12 132.397 155.218 132.685 156.733 132.984C158.504 133.347 159.954 133.731 161.085 134.136C162.237 134.52 163.24 135.16 164.093 136.056C164.946 136.952 165.384 138.168 165.405 139.704C165.405 142.307 164.52 144.237 162.749 145.496C161 146.755 158.653 147.384 155.709 147.384C152.274 147.384 149.597 146.808 147.677 145.656C145.778 144.504 144.829 142.467 144.829 139.544H151.517C151.517 140.653 151.805 141.4 152.381 141.784C152.957 142.147 153.853 142.328 155.069 142.328C155.965 142.328 156.701 142.232 157.277 142.04C157.874 141.848 158.173 141.453 158.173 140.856C158.173 140.323 157.842 139.928 157.181 139.672C156.541 139.395 155.485 139.107 154.013 138.808C152.221 138.424 150.738 138.029 149.565 137.624C148.392 137.197 147.368 136.504 146.493 135.544C145.618 134.584 145.181 133.283 145.181 131.64C145.181 129.229 146.109 127.459 147.965 126.328C149.842 125.176 152.21 124.6 155.069 124.6Z" fill="#F5EDFD"/>
</svg>
